Patient4_TMGait_0pt7_02_right_43_EMG.mot
version=1
nRows=40
nColumns=33
inDegrees=no
endheader
time	1LAddLong	2LGlutMax	3LGlutMed	4LIliopsoas	5LSemiMemb	6LBicFemLong	7LRecFem	8LVastMed	9LVastLat	10LGasMed	11LTibAnt	12lTibPost	13LPeroneusLong	14LSol	15LExtDigLong	16LFlexDigLong	17RAddLong	18RGlutMax	19RGlutMed	20RIliopsoas	21RSemiMemb	22RBicFemLong	23RRecFem	24RVastMed	25RVastLat	26RGasMed	27RTibAnt	28RTibPost	29RPeroneusLong	30RSol	31RExtDigLong	32RFlexDigLong
49.92	0.010071	0.040894	0.073547	0.005493	0.006256	0.066681	-0.024261	0.004883	0.052795	0.034485	0.10239	0.000916	0.50217	0.12665	-0.21942	-0.018768	-0.08728	-0.096588	0.19196	0.005646	-0.18585	0.035553	-0.15732	-0.0354	-0.008087	-0.019073	0.54474	-0.018921	-0.31998	-0.1767	-0.002594	0.026245
49.921	0.005798	0.036774	0.12848	-0.012817	-0.018921	0.10971	0.001984	0.007477	0.053558	0.015411	0.024414	0.015106	0.86716	0.16144	-0.10437	-0.006104	-0.084686	-0.10101	0.65689	-0.028381	-0.13657	0.050812	-0.063782	-0.030212	0.004883	-0.032196	0.69611	-0.023499	-0.13534	-0.049591	-0.000916	0.015411
49.922	0.005341	0.029755	0.036621	-0.010071	-0.016174	0.030212	-0.000763	0.008087	0.05127	0.013275	-0.020447	0.009003	-0.003967	0.045929	0.023346	-0.01709	-0.084991	-0.15198	0.93613	-0.025024	-0.12573	0.095367	-0.037079	-0.076599	0.003815	-0.031281	0.30777	-0.024109	-0.03479	-0.01709	-0.007172	0.014343
49.923	0.012207	0.015564	-0.041351	0.00473	-0.016327	0.069427	0.011902	0.009003	0.005035	0.049286	-0.003204	0.00473	-0.2887	-0.064087	-0.026703	-0.009918	-0.076599	-0.16983	1.0953	-0.009003	-0.046234	0.063782	-0.004272	-0.041962	-0.005035	-0.026703	-0.63385	-0.02182	0.09552	-0.078888	0	0.006561
49.924	0.000763	0.037689	0.046082	-0.002289	-0.01709	0.13702	0.04715	0.001678	-0.12085	0.077209	-0.005798	0.011597	-0.2153	-0.19089	-0.019989	-0.010223	-0.063629	-0.19745	0.92926	-0.002594	0.14252	0.047302	-0.033417	-0.034637	0.010071	-0.016632	-0.76706	-0.018768	0.24597	-0.168	-0.005188	0.001373
49.925	0.00351	0.050812	0.22293	0.015259	0.033112	0.054779	0.037537	0.001526	-0.092773	0.068054	-0.015106	0.007782	-0.005951	-0.007477	0.087128	-0.006714	-0.05249	-0.18738	0.70007	-0.015869	0.096588	0.038147	0.005646	0.030212	0.007019	-0.018616	-0.90866	-0.022278	0.22201	-0.13962	-0.003052	0
49.926	0.002747	0.022125	0.076141	0.007629	-0.032654	-0.058746	0.038605	0.000458	-0.040894	0.023193	-0.054626	0.014954	0.37705	0.10971	0.15427	-0.015106	-0.018158	-0.17792	0.54336	-0.021515	0.10529	0.016785	0.006256	-0.017395	0.01358	-0.020142	-0.51132	-0.025177	0.042725	-0.042419	0.000916	-0.020905
49.927	-0.001984	0.010529	0.035248	0.021057	-0.020447	-0.24841	0.053558	0.000763	-0.03418	0.016174	-0.023346	0.013275	-0.015259	-0.013733	0.10864	-0.004272	0.011597	-0.17181	0.29526	-0.078735	0.003052	-0.039825	0.042572	-0.074158	0.009308	-0.021515	0.30777	-0.023804	-0.098114	0.021057	-0.000916	-0.034943
49.928	-0.011749	0.005188	0.067444	0.008698	-0.001678	-0.046692	0.044098	-0.003204	-0.015869	0.037384	0.054626	0.015259	-0.11887	-0.10834	0.049896	-0.010376	0.010681	-0.16541	0.2066	-0.22659	-0.16495	-0.060577	0.063934	-0.13351	-0.005188	-0.013275	0.54749	-0.024109	-0.12314	0.021667	-0.007324	-0.040894
49.929	-0.00061	0.062408	0.073395	0.022583	0.059814	0.082855	0.028381	0.009918	-0.033264	-0.014343	0.078125	0.011139	-0.15427	-0.014343	0.020294	-0.007019	-0.002899	-0.12756	0.25955	-0.19745	-0.36987	-0.028534	0.13184	-0.15091	-0.028534	-0.007172	0.59113	-0.021973	-0.085144	-0.052795	-0.001526	-0.042419
49.93	0.006409	0.010376	0.064392	0.012817	0.060425	-0.00061	-0.051575	0.009766	-0.040436	-0.053406	0.058441	0.011597	0.15717	0.071259	-0.065002	-0.012512	-0.030823	-0.14908	0.2092	-0.10284	-0.42938	0.10681	0.17044	-0.1152	-0.013275	-0.00412	0.62271	-0.026703	-0.16022	-0.13931	-0.001526	-0.045776
49.931	0.019379	0.044708	0.045319	0.012054	0.061188	-0.065155	-0.016632	0.008698	-0.018311	-0.042114	0.036163	0.01297	0.24994	0.10498	-0.059967	-0.001068	-0.085907	-0.15488	0.27634	0.019226	0.16113	0.1503	0.15167	0.10712	0.029602	-0.005188	0.28763	-0.021667	-0.22537	-0.11093	-0.001068	-0.047607
49.932	0.014954	0.024872	0.040588	-0.005951	0.000916	-0.043488	-0.027771	0.005646	-0.037537	-0.008087	0.035553	0.010071	-0.059204	0.030518	-0.067139	-0.002289	-0.063171	-0.1503	0.2121	0.082703	0.29892	0.10056	0.080566	0.10468	0.032043	-0.00885	0.044708	-0.027924	-0.24262	-0.10712	-0.002747	-0.05188
49.933	0.005035	0.030823	0.019836	0.010834	-0.06073	0.019989	0.013123	0.006561	-0.033722	-0.033264	0.032196	0.011902	0.032349	0.14832	0.009308	-0.000763	-0.06134	-0.12085	0.19043	0.1767	0.298	0.032806	0.098267	0.074921	0.022583	-0.005341	-0.16785	-0.020905	-0.33814	-0.059509	-0.002594	-0.043945
49.934	0.001221	0.030823	0.006409	0.012207	-0.082245	0.014038	0.038147	0.01297	-0.048523	-0.032806	0.005646	0.013885	0.036926	0.093536	0.061798	-0.010223	-0.055084	-0.12344	0.20676	0.27741	0.17395	-0.05722	0.097351	0.037384	0.022583	0.004883	0.011902	-0.028381	-0.29098	-0.093231	-0.000763	-0.042114
49.935	0.007019	0.024872	-0.003357	0.004883	0.03418	-0.011292	0.001068	0.00351	-0.012817	0.014954	0.026855	0.011597	0.076599	0.055847	0.049438	-0.009918	-0.010681	-0.09964	0.1918	0.27542	0.025177	-0.14648	0.077667	0.007019	0.033112	0.007172	0.20218	-0.018921	-0.08194	-0.082397	-0.001678	-0.036926
49.936	0.019531	0.012054	-0.020142	-0.007019	0.066223	0.011444	0.006866	0.006256	-0.032349	0.080719	0.046082	0.005798	-0.1088	0.059814	0.39169	-0.000458	0.027161	-0.1149	0.20676	0.15457	-0.037384	-0.1384	0.075989	-0.037079	0.009613	0.02121	-0.25513	-0.020294	0.13672	-0.11673	-0.004425	-0.03479
49.937	0.019379	0.025024	-0.04364	-0.000763	0.10727	0.000305	0.010681	0.000153	0.034943	0.10757	-0.079651	0.006561	-0.17136	0.11856	0.11612	0.001221	0.037537	-0.11292	0.1062	0.002747	-0.044556	-0.12848	0.12436	-0.053406	0.009308	0.016937	-0.35248	-0.018463	0.60379	-0.097809	-0.006561	-0.034332
49.938	0.028381	0.022736	-0.024872	-0.015717	0.063782	-0.033264	0.023499	-0.010071	0.060272	0.024109	-0.10712	0.003967	-0.098572	0.15472	0.14236	0.013733	0.024414	-0.058136	0.001526	-0.016327	-0.04776	-0.055084	0.12772	-0.059357	-0.010986	0.01709	-0.18295	-0.025177	0.50476	-0.022125	-0.00061	-0.037079
49.939	0.018158	0.009308	0.06073	0.002747	0.012817	0.015411	0.012207	-0.003204	0.050049	0.003815	-0.06897	0.005188	0.060425	0.11383	-0.097504	0.005798	0.040283	-0.033875	-0.12558	0.010223	-0.024719	0.10376	0.12116	-0.079498	0.001984	0.016479	-0.17471	-0.024872	0.20889	0.053558	-0.001526	-0.031738
49.94	0.014801	-0.011139	0.012665	0.01297	0.03418	0.026398	0.015106	-0.001984	0.029907	0.04776	0.003662	0.006866	0.19989	0.041351	-0.11932	0.001373	0.088043	-0.044556	-0.25314	0.090942	-0.027008	0.003967	0.12741	-0.11185	0.007477	0.013885	0.13596	-0.02594	0.080719	0.11704	0.000153	-0.031738
49.941	0.018921	-0.03418	0	0.021973	0.037994	0.054169	0.025482	0.011902	-0.017242	0.035095	0.044098	0.005951	0.13748	-0.033264	-0.1384	-0.029297	0.07431	-0.02243	-0.1683	0.0383	-0.057678	-0.055542	0.12436	-0.079803	0.005798	0.014343	0.31143	-0.019379	0.27802	0.2124	0.000916	-0.034943
49.942	0.017395	0.014038	0.004578	0.010986	0.011444	0.060883	0.02243	0.012054	-0.030823	0.00351	0.034943	0.012665	-0.17334	-0.07019	-0.19714	-0.018463	0.018921	-0.016632	-0.003204	-0.003967	-0.083618	-0.047607	0.10819	-0.085907	-0.000153	0.034943	0.34851	-0.021362	0.14801	0.052338	-0.00885	-0.033417
49.943	0.013123	0.003815	-0.020752	0.004425	0.001984	0.004578	-0.014038	0.014648	-0.019226	-0.015259	-0.013428	0.01709	-0.034027	0.009613	-0.18601	-0.012817	-0.000458	-0.014496	-0.042725	-0.02121	-0.083618	0.15366	0.10162	-0.11856	0.000458	0.023804	0.49469	-0.028992	-0.076141	-0.023956	-0.002136	-0.039825
49.944	0.010376	-0.027771	0.033569	-0.002441	0.010834	-0.003662	-0.059052	0.006714	-0.014343	0.026245	0.035553	0.056152	0.072021	-0.019226	-0.070801	0.002441	-0.06012	-0.13031	-0.29251	0.038757	-0.084839	0.10376	0.053101	-0.1236	-0.010529	0.028839	0.19898	-0.023651	-0.075531	0.021057	0.00351	-0.044556
49.945	0.018311	-0.056763	0.12665	-0.010376	0.016632	0.025787	-0.047455	0.001221	-0.056152	0.074463	0.053711	0.048218	0.16785	-0.077972	0.035706	0.005341	-0.061951	-0.19134	-0.20401	-0.004578	-0.019226	-0.006409	0.070801	-0.088806	0.010986	0.030365	-0.53513	-0.024109	0.072937	0.054474	0.00061	-0.042114
49.946	0.018158	-0.063782	0.052338	0.030823	0.02533	0.03891	-0.020294	-0.006409	0.10544	0.086975	0.031433	0.03952	-0.031891	-0.066528	0.11536	-0.000305	-0.046997	-0.11963	0.27313	-0.004272	-0.082245	-0.023346	0.046234	-0.089569	-0.003967	0.021973	-0.21316	-0.023193	0.14023	0.063019	0.002441	-0.039368
49.947	0.024109	-0.045471	-0.015869	0.041046	0.011902	0.015411	-0.039063	-0.011902	0.091705	0.097504	-0.022736	0.023499	-0.12665	0.000305	0.036621	-0.009613	-0.033417	-0.052795	1.2431	0.018616	-0.007782	-0.048981	0.026398	-0.11276	0.003052	0.012512	-0.1976	-0.022888	0.14954	-0.017548	0.000763	-0.036926
49.948	0.0177	-0.02182	-0.000305	0.008087	0.019531	-0.096893	-0.024414	0.004425	0.037994	0.038605	-0.18875	0.019836	-0.052795	0.07019	-0.098572	0.008698	-0.032806	-0.04364	1.2523	-0.031433	0.051422	0.006714	-0.024872	-0.087433	0.003662	0.015869	-0.1619	-0.022736	0.089722	-0.058899	0.001068	-0.037689
49.949	0.013123	-0.024567	0.032501	0.002289	0.015869	-0.088348	0.036774	0.00061	0.034637	0.032654	-0.18372	0.011597	0.10605	0.090637	-0.16892	0.012665	-0.012817	-0.038757	1.18	-0.069733	-0.090332	0.031128	0.04715	-0.072937	0.019379	0.010376	0.042267	-0.017395	0.008087	-0.028534	0.008698	-0.042114
49.95	0.005341	-0.048218	0.027161	0.013733	-0.011902	-0.044098	0.017395	-0.001068	0.027618	0.022125	-0.071716	0.004578	-0.053864	0.14023	-0.077209	-0.002136	-0.019989	-0.081177	0.82809	-0.052338	-0.18173	-0.017395	0.002136	-0.082855	0.003357	0.008392	0.35065	-0.017853	-0.096588	-0.032959	0.000916	-0.027008
49.951	0.001068	-0.078583	-0.020447	0.028229	-0.0383	-0.023651	0.041656	0.00473	0.018768	0.066528	0.03891	0.003815	0.049133	0.15686	0.030823	0.004883	-0.000763	-0.11276	0.49606	-0.066681	-0.064392	-0.10178	-0.007324	-0.093079	0.004272	0.005493	0.41443	-0.016174	-0.1799	-0.050049	-0.000305	-0.029907
49.952	0.004883	-0.081024	-0.028839	0.041809	-0.054016	0.027313	0.039825	0.009918	0.007629	0.068512	0.15411	-0.009308	0.19577	0.070801	0.054016	-0.002136	0.061798	-0.14313	0.27802	-0.065308	0.012665	-0.19287	0.041809	-0.13947	-0.000153	0.005188	-0.000916	-0.018463	-0.14389	-0.064697	0.001373	-0.026855
49.953	0.009613	-0.043945	0.035858	0.04364	-0.030212	0.13672	0.052032	0.016022	0.002747	0.061035	0.19852	0.072327	0.44006	-0.013275	0.045471	0.008087	0.077515	-0.13336	0.087738	-0.057373	0.19531	-0.28183	0.0177	-0.16251	0.000916	-0.007019	-0.38864	-0.015411	-0.088959	-0.081787	0.00351	-0.026855
49.954	0.019531	-0.059052	-0.037689	0.014038	0.053253	0.2063	0.071106	0.01709	-0.005798	-0.055695	0.12817	0.025024	0.34759	-0.040588	0.070648	0.007324	0.03418	-0.10284	0.14236	-0.001526	0.097809	-0.21271	-0.009155	-0.063629	0.032043	-0.011444	-0.35294	-0.018768	-0.027008	-0.066376	0.000916	-0.019989
49.955	0.015411	-0.0737	-0.027771	0.009155	0.033264	0.24185	0.074005	0.010071	-0.020142	-0.067749	0.014191	-0.009918	-0.27557	0.053101	0.14847	0.011902	-0.057983	-0.12222	-0.003204	0.034027	-0.094147	-0.070496	-0.026245	0.073242	0.050659	-0.015564	-0.33508	-0.020752	0.090942	-0.080414	-0.000458	-0.017395
49.956	0.019836	-0.049438	0.092621	-0.015259	0.013733	0.23071	0.068207	0.005493	-0.033112	0.094604	-0.11108	-0.025177	-0.53101	0.095673	0.22492	0.006866	-0.081482	-0.13153	-0.14557	0.029449	-0.24155	0.14481	0.025482	0.088806	0.015411	-0.013275	-0.11749	-0.019989	0.18204	-0.10574	-0.000153	-0.013275
49.957	0.014648	-0.062714	0.033112	-0.012817	0.009918	0.1889	0.02594	-0.005188	-0.027618	0.14053	-0.17746	-0.043182	-0.050201	-0.11337	0.31906	0.011139	-0.056458	-0.15945	-0.18967	-0.018616	-0.24292	0.23392	0.053864	0.063934	0.012665	-0.01297	-0.007019	-0.014954	0.074921	-0.11536	0.001373	-0.014343
49.958	0.01358	-0.08606	-0.020599	-0.007324	0.024261	0.088501	0.00351	-0.015106	0.018005	-0.092316	-0.11826	-0.056152	-0.16892	0.051422	0.18478	0.013428	-0.043182	-0.1799	-0.21774	0.006256	-0.21805	0.19623	0.046844	0.003052	0.010681	-0.010986	0.058899	-0.019073	-0.065002	-0.097351	-0.001373	-0.001221
49.959	0.013733	-0.083618	-0.014496	-0.028992	0.039215	-0.15015	0.076447	-0.011444	0.000153	-0.14114	-0.092316	-0.045319	-0.18402	0.17441	0.27268	0.016327	-0.027771	-0.18112	-0.2655	-0.006561	-0.19669	0.25772	0.026398	0.037842	0.10727	-0.008545	0.26413	-0.008087	-0.10391	-0.07843	0.000305	0.000305
